<mxfile host="Electron" modified="2024-05-31T05:56:52.898Z" agent="Mozilla/5.0 (Windows NT 10.0; Win64; x64) AppleWebKit/537.36 (KHTML, like Gecko) draw.io/22.0.3 Chrome/114.0.5735.289 Electron/25.8.4 Safari/537.36" etag="GHJ9q8pbGeGIbUjp7Gum" version="22.0.3" type="device">
  <diagram id="C5RBs43oDa-KdzZeNtuy" name="Page-1">
    <mxGraphModel dx="865" dy="611" grid="1" gridSize="10" guides="1" tooltips="1" connect="1" arrows="1" fold="1" page="1" pageScale="1" pageWidth="827" pageHeight="1169" math="0" shadow="0">
      <root>
        <mxCell id="WIyWlLk6GJQsqaUBKTNV-0" />
        <mxCell id="WIyWlLk6GJQsqaUBKTNV-1" parent="WIyWlLk6GJQsqaUBKTNV-0" />
        <mxCell id="nDkjyHfl0j68gdk95McF-3" value="" style="edgeStyle=orthogonalEdgeStyle;rounded=0;orthogonalLoop=1;jettySize=auto;html=1;" parent="WIyWlLk6GJQsqaUBKTNV-1" source="nDkjyHfl0j68gdk95McF-0" target="nDkjyHfl0j68gdk95McF-2" edge="1">
          <mxGeometry relative="1" as="geometry" />
        </mxCell>
        <mxCell id="nDkjyHfl0j68gdk95McF-0" value="начало" style="ellipse;whiteSpace=wrap;html=1;fillColor=#f5f5f5;fontColor=#333333;strokeColor=#666666;" parent="WIyWlLk6GJQsqaUBKTNV-1" vertex="1">
          <mxGeometry x="200" y="160" width="120" height="40" as="geometry" />
        </mxCell>
        <mxCell id="nDkjyHfl0j68gdk95McF-1" value="&lt;h1&gt;&lt;span style=&quot;background-color: initial;&quot;&gt;Селекция&lt;br&gt;&lt;/span&gt;&lt;span style=&quot;background-color: initial; font-size: 12px; font-weight: normal;&quot;&gt;Произвести селекцию коллекции популяций полярных координат&lt;/span&gt;&lt;br&gt;&lt;/h1&gt;" style="text;html=1;strokeColor=none;fillColor=none;spacing=5;spacingTop=-20;whiteSpace=wrap;overflow=hidden;rounded=0;" parent="WIyWlLk6GJQsqaUBKTNV-1" vertex="1">
          <mxGeometry x="40" y="40" width="520" height="80" as="geometry" />
        </mxCell>
        <mxCell id="sF8ZQ8ZIpYBojulsC9ic-2" value="" style="edgeStyle=orthogonalEdgeStyle;rounded=0;orthogonalLoop=1;jettySize=auto;html=1;" edge="1" parent="WIyWlLk6GJQsqaUBKTNV-1" source="nDkjyHfl0j68gdk95McF-2" target="sF8ZQ8ZIpYBojulsC9ic-0">
          <mxGeometry relative="1" as="geometry" />
        </mxCell>
        <mxCell id="nDkjyHfl0j68gdk95McF-2" value="&lt;b&gt;collections&lt;/b&gt; коллекция популяций,&lt;br&gt;&lt;b&gt;countIteration&lt;/b&gt;&amp;nbsp;кол-во итераций/поколений&lt;br&gt;&lt;b&gt;countChild&lt;/b&gt; кол-во потомков при генрации следующего поколения&lt;br&gt;&lt;b&gt;countFilterIteration&lt;/b&gt; - частота фильтраций" style="shape=parallelogram;perimeter=parallelogramPerimeter;whiteSpace=wrap;html=1;fixedSize=1;fillColor=#dae8fc;strokeColor=#6c8ebf;" parent="WIyWlLk6GJQsqaUBKTNV-1" vertex="1">
          <mxGeometry x="80" y="240" width="360" height="80" as="geometry" />
        </mxCell>
        <mxCell id="nDkjyHfl0j68gdk95McF-15" value="конец" style="ellipse;whiteSpace=wrap;html=1;fillColor=#f5f5f5;fontColor=#333333;strokeColor=#666666;" parent="WIyWlLk6GJQsqaUBKTNV-1" vertex="1">
          <mxGeometry x="200" y="840" width="120" height="40" as="geometry" />
        </mxCell>
        <mxCell id="piJ9wvMk9EYsJqWGtZYh-4" value="" style="edgeStyle=orthogonalEdgeStyle;rounded=0;orthogonalLoop=1;jettySize=auto;html=1;" parent="WIyWlLk6GJQsqaUBKTNV-1" source="piJ9wvMk9EYsJqWGtZYh-2" target="nDkjyHfl0j68gdk95McF-15" edge="1">
          <mxGeometry relative="1" as="geometry" />
        </mxCell>
        <mxCell id="piJ9wvMk9EYsJqWGtZYh-2" value="вернуть коллекцию потомков" style="shape=parallelogram;perimeter=parallelogramPerimeter;whiteSpace=wrap;html=1;fixedSize=1;fillColor=#dae8fc;strokeColor=#6c8ebf;" parent="WIyWlLk6GJQsqaUBKTNV-1" vertex="1">
          <mxGeometry x="80" y="760" width="360" height="40" as="geometry" />
        </mxCell>
        <mxCell id="sF8ZQ8ZIpYBojulsC9ic-3" value="" style="edgeStyle=orthogonalEdgeStyle;rounded=0;orthogonalLoop=1;jettySize=auto;html=1;" edge="1" parent="WIyWlLk6GJQsqaUBKTNV-1" source="sF8ZQ8ZIpYBojulsC9ic-0" target="sF8ZQ8ZIpYBojulsC9ic-1">
          <mxGeometry relative="1" as="geometry" />
        </mxCell>
        <mxCell id="sF8ZQ8ZIpYBojulsC9ic-19" style="edgeStyle=orthogonalEdgeStyle;rounded=0;orthogonalLoop=1;jettySize=auto;html=1;entryX=1;entryY=0.5;entryDx=0;entryDy=0;" edge="1" parent="WIyWlLk6GJQsqaUBKTNV-1" source="sF8ZQ8ZIpYBojulsC9ic-0" target="piJ9wvMk9EYsJqWGtZYh-2">
          <mxGeometry relative="1" as="geometry">
            <Array as="points">
              <mxPoint x="480" y="380" />
              <mxPoint x="480" y="780" />
            </Array>
          </mxGeometry>
        </mxCell>
        <mxCell id="sF8ZQ8ZIpYBojulsC9ic-0" value="i = 1,&amp;nbsp;&lt;b style=&quot;border-color: var(--border-color);&quot;&gt;countIteration&lt;/b&gt;&amp;nbsp;" style="shape=hexagon;perimeter=hexagonPerimeter2;whiteSpace=wrap;html=1;fixedSize=1;fillColor=#fff2cc;strokeColor=#d6b656;" vertex="1" parent="WIyWlLk6GJQsqaUBKTNV-1">
          <mxGeometry x="160" y="360" width="200" height="40" as="geometry" />
        </mxCell>
        <mxCell id="sF8ZQ8ZIpYBojulsC9ic-9" value="" style="edgeStyle=orthogonalEdgeStyle;rounded=0;orthogonalLoop=1;jettySize=auto;html=1;" edge="1" parent="WIyWlLk6GJQsqaUBKTNV-1" source="sF8ZQ8ZIpYBojulsC9ic-1" target="sF8ZQ8ZIpYBojulsC9ic-8">
          <mxGeometry relative="1" as="geometry" />
        </mxCell>
        <mxCell id="sF8ZQ8ZIpYBojulsC9ic-1" value="создать&amp;nbsp;&lt;b style=&quot;border-color: var(--border-color);&quot;&gt;countChild &lt;/b&gt;&lt;span style=&quot;border-color: var(--border-color);&quot;&gt;потомков алгоритмом &quot;Мутация&quot; для каждой коллекции текущей популяции, и добавить их в коллекцию следующего поколения потомков&lt;/span&gt;" style="rounded=0;whiteSpace=wrap;html=1;fillColor=#d5e8d4;strokeColor=#82b366;" vertex="1" parent="WIyWlLk6GJQsqaUBKTNV-1">
          <mxGeometry x="80" y="440" width="360" height="80" as="geometry" />
        </mxCell>
        <mxCell id="sF8ZQ8ZIpYBojulsC9ic-11" value="" style="edgeStyle=orthogonalEdgeStyle;rounded=0;orthogonalLoop=1;jettySize=auto;html=1;" edge="1" parent="WIyWlLk6GJQsqaUBKTNV-1" source="sF8ZQ8ZIpYBojulsC9ic-8" target="sF8ZQ8ZIpYBojulsC9ic-10">
          <mxGeometry relative="1" as="geometry" />
        </mxCell>
        <mxCell id="sF8ZQ8ZIpYBojulsC9ic-12" value="да" style="edgeLabel;html=1;align=center;verticalAlign=middle;resizable=0;points=[];" vertex="1" connectable="0" parent="sF8ZQ8ZIpYBojulsC9ic-11">
          <mxGeometry x="-0.1333" y="1" relative="1" as="geometry">
            <mxPoint as="offset" />
          </mxGeometry>
        </mxCell>
        <mxCell id="sF8ZQ8ZIpYBojulsC9ic-16" style="edgeStyle=orthogonalEdgeStyle;rounded=0;orthogonalLoop=1;jettySize=auto;html=1;entryX=0;entryY=0.5;entryDx=0;entryDy=0;" edge="1" parent="WIyWlLk6GJQsqaUBKTNV-1" source="sF8ZQ8ZIpYBojulsC9ic-8" target="sF8ZQ8ZIpYBojulsC9ic-0">
          <mxGeometry relative="1" as="geometry">
            <Array as="points">
              <mxPoint x="40" y="600" />
              <mxPoint x="40" y="380" />
            </Array>
          </mxGeometry>
        </mxCell>
        <mxCell id="sF8ZQ8ZIpYBojulsC9ic-17" value="нет" style="edgeLabel;html=1;align=center;verticalAlign=middle;resizable=0;points=[];" vertex="1" connectable="0" parent="sF8ZQ8ZIpYBojulsC9ic-16">
          <mxGeometry x="-0.813" y="-2" relative="1" as="geometry">
            <mxPoint as="offset" />
          </mxGeometry>
        </mxCell>
        <mxCell id="sF8ZQ8ZIpYBojulsC9ic-8" value="i %&amp;nbsp;&lt;b style=&quot;border-color: var(--border-color);&quot;&gt;countFilterIteration &lt;/b&gt;&lt;span style=&quot;border-color: var(--border-color);&quot;&gt;== 0&lt;/span&gt;" style="rhombus;whiteSpace=wrap;html=1;fillColor=#d5e8d4;strokeColor=#82b366;rounded=0;" vertex="1" parent="WIyWlLk6GJQsqaUBKTNV-1">
          <mxGeometry x="160" y="560" width="200" height="80" as="geometry" />
        </mxCell>
        <mxCell id="sF8ZQ8ZIpYBojulsC9ic-18" style="edgeStyle=orthogonalEdgeStyle;rounded=0;orthogonalLoop=1;jettySize=auto;html=1;entryX=0;entryY=0.5;entryDx=0;entryDy=0;" edge="1" parent="WIyWlLk6GJQsqaUBKTNV-1" source="sF8ZQ8ZIpYBojulsC9ic-10" target="sF8ZQ8ZIpYBojulsC9ic-0">
          <mxGeometry relative="1" as="geometry">
            <Array as="points">
              <mxPoint x="40" y="700" />
              <mxPoint x="40" y="380" />
            </Array>
          </mxGeometry>
        </mxCell>
        <mxCell id="sF8ZQ8ZIpYBojulsC9ic-10" value="Применить к итоговой коллекции алгоритм &quot;Фильтрация&quot;" style="whiteSpace=wrap;html=1;fillColor=#d5e8d4;strokeColor=#82b366;rounded=0;" vertex="1" parent="WIyWlLk6GJQsqaUBKTNV-1">
          <mxGeometry x="160" y="680" width="200" height="40" as="geometry" />
        </mxCell>
        <mxCell id="sF8ZQ8ZIpYBojulsC9ic-21" value="&lt;h1&gt;&lt;span style=&quot;background-color: initial;&quot;&gt;Почему коллекции на выходе будут больше нам подходить, чем исходные&lt;/span&gt;&lt;/h1&gt;&lt;h1&gt;&lt;span style=&quot;font-size: 12px; font-weight: 400;&quot;&gt;Так как кол-во точек ограничено, то перставляя местами каждый раз 2 мы можем улучшить расположение на секторе. То есть итоговый сектор круга, занимаемый группой тегов будет более компактным.&lt;br&gt;В первом приближении мы должны получить неразрывные сектора, во втором минимизировать площадь пересечения секторов. (Так как координаты полярные, то уменьшение площади = уменьшению углов пересечения секторов)&lt;/span&gt;&lt;/h1&gt;" style="text;html=1;strokeColor=none;fillColor=none;spacing=5;spacingTop=-20;whiteSpace=wrap;overflow=hidden;rounded=0;" vertex="1" parent="WIyWlLk6GJQsqaUBKTNV-1">
          <mxGeometry x="520" y="360" width="280" height="350" as="geometry" />
        </mxCell>
      </root>
    </mxGraphModel>
  </diagram>
</mxfile>
